<svg xmlns="http://www.w3.org/2000/svg" width="800" height="800" viewBox="0 0 32 32"><path fill="#fff" fill-rule="evenodd" d="M31.207.82c-1.246-1.25-3.436-.957-4.689.299l-6.377 6.362-11.828-4.42c-1.133-.293-2.274-.672-3.679.737-.717.718-2.207 2.212 0 4.423l8.11 6.64-5.277 5.266-4.924-1.231c-.73-.188-1.222-.041-1.597.373-.189.236-1.56 1.252-.604 2.21l5.725 4.454 4.454 5.725c.692.694 1.335.261 2.214-.574.557-.558.437-.845.269-1.658l-1.112-4.89 5.241-5.259 6.63 8.112c2.206 2.211 3.697.716 4.414 0 1.406-1.41 1.028-2.552.735-3.687l-4.383-11.848 6.351-6.373c1.253-1.255 1.574-3.412.327-4.661"/></svg>