<svg xmlns="http://www.w3.org/2000/svg" width="800" height="800" fill="none" viewBox="0 0 24 24"><g clip-path="url(#a)"><path fill="#80DAFE" d="M9.13 16.772c-1.468.198-1.94.395-2.816.558-.875.162-3.614.868-3.614 2.096s2.499 2.181 4.01 2.181 2.816.318 4.086 1.073 3.057 1.39 4.01 1.313c.953-.078 1.743-1.228 1.983-1.588s1.349-1.468 2.344-2.061 2.146-1.906 1.546-3.134c-.6-1.236-11.548-.438-11.548-.438"/><path fill="url(#b)" d="M20.672 17.21c-.318-.657-3.622-.735-6.607-.672l-6.46 1.038c-1.418.226-2.802.65-4.108 1.257a1.2 1.2 0 0 0-.049.317c0 .149.028.297.07.445.692 1.017 2.118 2.146 4.2 1.454 2.768-.925 3 .297 4.892 1.101 1.892.805 4.215.24 6.629-2.442.592-.664 1.1-1.08 1.531-1.348.106-.374.092-.77-.098-1.15"/><path fill="url(#c)" d="M8.361 17.146c-2.047.176-1.97.628-2.894.776s-2.47.593-1.638 1.843 4.229 1.044 5.732.593c1.504-.445 3.67.472 4.652 1.249.981.776 3.36-.325 4.045-1.518.684-1.193 1.99-1.913 2.647-2.103s-.325-1.264-.325-1.264l-7.835.198z"/><path fill="url(#d)" d="M12.484 15.205c-.89 0-2.182.275-3.869 1.63s-4.461 1.327-4.461 2.125c0 .797.953 1.27 2.598 1.27 1.644 0 3.353-.614 4.842-.614 1.828 0 2.619 1.172 3.967 1.172s2.421-1.468 2.619-1.807 1.13-.974 1.744-1.13 1.207-.515.458-1.27c-.755-.755-2.555-1.059-3.197-1.059-1.172-.007-1.786-.317-4.701-.317"/><path fill="url(#e)" d="M19.923 17.844c.615-.155 1.208-.515.46-1.27a2.2 2.2 0 0 0-.389-.297q-.2.105-.642.17c-2.16.31-2.005 2.626-3.89 1.948-1.884-.678-3.903-.487-7.1.48-1.497.452-2.359.028-2.55-.79-.938.275-1.665.465-1.665.868 0 .79.953 1.27 2.598 1.27 1.644 0 3.353-.614 4.842-.614 1.828 0 2.619 1.172 3.967 1.172s2.421-1.468 2.619-1.807 1.13-.974 1.75-1.13"/><path fill="url(#f)" d="M15.554 20.781c1.348 0 2.421-1.468 2.619-1.807s1.13-.974 1.743-1.13 1.207-.515.46-1.27c-.022-.021-.05-.05-.079-.07-.338.705-1.009 1.129-1.743 1.213-1.073.12-1.221 2.295-2.795 1.906-1.574-.388-2.697-.953-5.217-.36s-3.77.742-4.666.092 1.857-.762 2.238-2.181C6.427 18.184 4.14 18.24 4.14 18.96c0 .79.953 1.27 2.598 1.27 1.644 0 3.353-.614 4.842-.614 1.835-.007 2.626 1.165 3.974 1.165"/><path fill="url(#g)" d="m12.025 16.016.416.876.812.176s1.468-.219 1.828-1.327a.7.7 0 0 0 .021-.423 24 24 0 0 0-2.146-.113z"/><path fill="url(#h)" d="M6.406 19.228a.113.113 0 1 0 0-.225.113.113 0 0 0 0 .225"/><path fill="url(#i)" d="M10.775 16.334a.113.113 0 1 0 0-.226.113.113 0 0 0 0 .226"/><path fill="url(#j)" d="M9.194 17.4a.092.092 0 1 0 0-.184.092.092 0 0 0 0 .184"/><path fill="url(#k)" d="M12.335 18.84a.064.064 0 1 0 0-.127.064.064 0 0 0 0 .127"/><path fill="url(#l)" d="M8.573 19.49a.085.085 0 1 0 0-.17.085.085 0 0 0 0 .17"/><path fill="url(#m)" d="M11.495 17.958a.057.057 0 1 0 0-.113.057.057 0 0 0 0 .113"/><path fill="url(#n)" d="M12.759 17.696a.106.106 0 1 0 0-.212.106.106 0 0 0 0 .212"/><path fill="url(#o)" d="M10.027 18.346a.106.106 0 1 0 0-.212.106.106 0 0 0 0 .212"/><path fill="url(#p)" d="M13.62 18.706a.155.155 0 1 0 0-.31.155.155 0 0 0 0 .31"/><path fill="url(#q)" d="M15.18 16.56a.056.056 0 1 0 0-.113.056.056 0 0 0 0 .113"/><path fill="url(#r)" d="M15.222 17.696a.07.07 0 1 0 0-.14.07.07 0 0 0 0 .14"/><path fill="url(#s)" d="M15.032 19.066a.042.042 0 1 0 0-.085.042.042 0 0 0 0 .085"/><path fill="url(#t)" d="M16.472 19.101a.092.092 0 1 0 0-.184.092.092 0 0 0 0 .184"/><path fill="url(#u)" d="M16.38 16.13a.106.106 0 1 0 0-.213.106.106 0 0 0 0 .212"/><path fill="url(#v)" d="M19.352 16.588a.07.07 0 1 0 0-.14.07.07 0 0 0 0 .14"/><path fill="url(#w)" d="M17.53 17.901a.042.042 0 1 0 0-.085.042.042 0 0 0 0 .085"/><path fill="url(#x)" d="M17.827 16.864a.106.106 0 1 0 0-.212.106.106 0 0 0 0 .212"/><path fill="#FAAF5C" d="M9.872 18.974c-.184.035-.254.226-.445.19.07-.225.19-.282.445-.19M17.361 18.826c-.056-.113-.141-.219-.007-.346.035-.035.035-.099.056-.162.163.197-.028.346-.049.508M15.42 16.038c.085.056.141.098.205.14l-.163.163c-.07-.12-.07-.12-.042-.303M14.425 17.901l-.064.043c-.064.035-.141.084-.198.007-.056-.07.043-.092.071-.134.07-.085.127-.029.176.028.008.021.008.035.014.056M10.246 18c0 .085-.007.134 0 .19.007.05.028.092.035.142-.042.028-.099.056-.141.084-.007-.275-.007-.275.106-.416M6.773 19.023l.127-.275c.014.007.021.007.035.014-.028.113-.063.219-.099.353-.077-.021-.155-.05-.232-.07 0-.015.007-.022.007-.036.063.007.12.014.162.014M10.783 17.732c.204-.014.077-.233.218-.304.022.05.057.092.05.134a.5.5 0 0 1-.085.17c-.05.063-.106.056-.183 0M17.982 15.918c.085.056.106.14.043.204-.05.05-.141.057-.22-.028zM9.215 16.75c.05-.035.1-.07.163-.12.049.078.091.156.14.226l.043-.02c-.035.006-.085.034-.106.02-.07-.056-.134-.106-.254-.014a.4.4 0 0 0 .014-.092M16.352 17.012c-.043.063-.092.127-.141.204-.043-.028-.078-.056-.113-.084.105-.163.105-.163.254-.12M20.128 17.068c-.078-.099-.155-.204-.254-.338.127.028.226.014.233.155 0 .05.042.099.064.155a.2.2 0 0 0-.043.028M16.401 17.718c.134.26.134.26 0 .331zM19.726 16.574c-.07-.05-.12-.07-.134-.099-.028-.07-.035-.148-.05-.219-.007-.021.007-.05.015-.07.028.014.063.028.07.049.028.092.057.19.099.339M10.218 16.376c-.092-.183-.092-.183.02-.29.114.12.114.12-.02.29M8.079 19.503c.007.113-.05.184-.134.24-.029.015-.071.022-.1.008-.013-.008-.034-.057-.027-.071a.15.15 0 0 1 .077-.05c.085-.02.085-.02.184-.127M15.54 18.48c-.113-.156-.099-.212.12-.332-.042.113-.078.212-.12.332M11.192 18.367c.014-.02.014-.028.02-.035.079-.042.15-.035.199.05.007.013-.008.049-.022.056-.091.063-.134-.007-.197-.07M16.373 18.233c-.014.099-.021.183-.113.205-.021.007-.07 0-.078-.007-.007-.029-.014-.085.007-.1.05-.035.106-.056.184-.098M14.347 19.207c-.162.106-.19.092-.261-.106.099.042.176.07.261.106M18.95 18.021c0 .043.006.078 0 .12q-.013.052-.036.106s-.05-.007-.056-.014c-.015-.035-.036-.085-.029-.12.014-.043.05-.085.07-.127q.031.023.05.035M14.347 18.085c.042.084.085.155.12.232-.148.014-.19-.056-.12-.233M17.361 16.179c-.014-.028-.05-.064-.042-.085a.2.2 0 0 1 .063-.092c.05.022.092.057.141.092a1 1 0 0 0-.162.085M20.608 17.224c-.056.028-.106.056-.17.084-.027-.028-.084-.077-.006-.12.056-.042.14-.098.176.036M18.653 17.47c.021.021.056.036.056.057.008.035 0 .077 0 .113-.035 0-.07.007-.091-.015-.057-.035-.05-.077 0-.12a.1.1 0 0 0 .035-.035M7.923 18.77c.057.056.085.091.12.127-.028.02-.049.049-.07.049-.028.007-.064-.014-.099-.014zM13.839 18.523c.05.006.077.006.099.02.035.036.07.071.106.114 0 0-.022.028-.029.028q-.077-.03-.14-.07c-.015-.015-.015-.05-.036-.092M17.086 19.828c.028-.134.028-.134.184-.155-.078.07-.128.113-.184.155M14.001 15.635c-.042-.05-.07-.07-.085-.106-.007-.014.036-.063.057-.063.028 0 .084.028.084.042 0 .036-.028.07-.056.127M15.399 18.784c.085.134-.021.197-.106.26q.052-.125.106-.26M17.48 19.426c-.041.042-.063.07-.09.106-.022-.021-.071-.05-.064-.064a.13.13 0 0 1 .063-.084c.014-.015.05.02.092.042M18.66 17.294c-.007-.085.042-.106.106-.07.056.035.099.091.183.169a3 3 0 0 0-.29-.099M20.107 17.414c-.106.014-.127-.063-.17-.155.12.007.177.05.17.155M15.646 17.125c-.12.05-.141-.036-.198-.113.127.028.127.028.198.113M15.455 15.614c-.02 0-.042.014-.063.007-.035-.014-.07-.042-.099-.063 0 0 .007-.035.014-.035l.12.02a.14.14 0 0 1 .057.029.2.2 0 0 1-.029.042M15.321 20.499q.021.02.021.028c-.007.05-.02.1-.028.156-.014-.008-.035 0-.035-.015-.043-.07-.043-.127.042-.169M11.7 18.36c-.028.056-.063.12-.092.176-.014-.084-.056-.176.092-.176M8.876 18.219c.008-.015.008-.029.022-.036q.065-.042.14-.084c.008.014.022.035.015.035l-.148.127a.1.1 0 0 0-.029-.042M18.37 18.226c-.006 0-.013.007-.02.007-.043-.029-.078-.064-.12-.1l.02-.027c.05.02.092.049.142.077zM8.29 18.6l-.014.035c-.049.014-.098.021-.148.035 0-.014-.007-.028 0-.042.035-.07.092-.085.162-.028M16.055 19.659c-.063.056-.12.106-.211.183.02-.134.112-.162.162-.233zM12.575 18.677c-.007.085-.007.149-.014.254-.113-.12-.12-.183.014-.254M13.317 17.732c0 .056.006.12 0 .176 0 .022-.043.036-.071.05-.014-.028-.043-.07-.035-.085.028-.056.07-.092.105-.141M19.719 17.873c.042-.078.084-.155.134-.233l-.007.007c.021.028.042.05.063.078a1.3 1.3 0 0 0-.19.148M17.1 19.468c-.042.036-.078.057-.106.078-.014-.021-.042-.05-.035-.07a.17.17 0 0 1 .07-.071c.015 0 .043.035.071.063M12.018 19.334c-.036.042-.064.085-.113.155-.029-.12.007-.162.113-.155M10.902 15.882q.043.045.064.078a.2.2 0 0 1-.035.042c-.029-.02-.057-.05-.085-.07.014-.014.028-.029.056-.05M17.156 15.96a1 1 0 0 1-.098-.113s.014-.02.02-.035c.043.035.093.064.135.099-.021.014-.035.035-.057.05M15.773 16.01v.176c-.078-.085-.078-.085 0-.177M12.159 17.139l.134-.113c.014.028.028.042.021.05-.014.07-.042.126-.155.063M13.323 17.732c-.007-.028-.02-.057-.02-.085s.02-.056.034-.085c.008-.007.057.008.057.022 0 .028 0 .063-.014.091-.014.029-.043.036-.057.057M18.363 17.795c-.028-.064-.063-.127-.113-.233.12.063.163.12.163.205a.1.1 0 0 1-.05.028M10.585 16.793c-.028-.05-.057-.078-.057-.106 0-.021.029-.042.043-.064.02.029.05.05.056.078.014.014-.014.043-.042.092M14.46 19.101c.021-.05.021-.092.042-.099.028-.014.064-.014.1-.021-.015.028-.015.063-.036.085-.021.02-.057.02-.106.035M7.182 19.03c-.042-.006-.084-.006-.127-.02-.007 0-.007-.036-.007-.057h.148c0 .028-.007.05-.014.078M8.905 16.892c.028-.043.056-.078.084-.12.07.028.057.056-.084.12M12.293 17.704l-.099.218c-.014-.127-.014-.127.099-.218M15.942 16.334c.05-.05.1-.092.149-.141l.028.028-.148.148c-.007-.014-.022-.02-.029-.035M17.39 17.598c-.015.035-.022.078-.043.113 0 0-.042-.014-.07-.021.02-.036.042-.078.063-.113q.03.01.05.02M14.615 17.238c.05-.078.085-.127.127-.198.014.127.014.127-.127.198M19.465 17.005c.127.078.014.127 0 .19zM18.427 17.153c.035.035.064.07.099.106-.021.007-.042.028-.05.028-.035-.021-.063-.05-.091-.078a.2.2 0 0 1 .042-.056M17.432 17.336l-.106.17c-.014-.113-.014-.113.106-.17 0 0 .007.008 0 0M6.632 19.772c.063-.022.113-.043.176-.064-.063.099-.063.099-.176.064M5.481 18.55c.05.036.106.07.17.113-.128.043-.156-.028-.198-.077q.009-.014.028-.036M18.759 16.376c-.021-.056-.177-.099-.014-.19q.012.105.014.19M16.542 18.417c0 .049-.007.098-.007.176-.084-.078-.091-.127.007-.177M16.655 19.532a1 1 0 0 1-.113.056l-.028-.05a1 1 0 0 1 .106-.07q.023.043.035.064M8.15 19.292l.091-.134c.014.007.035.02.035.028-.028.05-.056.092-.084.141-.014-.021-.028-.028-.043-.035M17.46 17.04l.021-.148c.064.056.064.056-.021.148M17.756 16.659c.014.042.029.07.022.091-.008.022-.036.036-.05.05-.014-.021-.035-.043-.035-.064 0-.028.028-.042.063-.077M18.046 16.722q-.076-.012-.148-.014c.07-.106.07-.106.148.014M19.521 16.694l-.064-.148.05-.014c.014.05.035.099.05.148-.008.007-.022.007-.036.014M16.246 16.595q-.052-.02-.106-.049l.021-.05c.035.015.07.036.106.05a.3.3 0 0 0-.021.05M14.495 16.553c-.028-.021-.056-.043-.056-.05a.3.3 0 0 1 .05-.077c.013.014.041.028.041.035q-.011.04-.035.092M17.488 16.327c-.028.028-.05.042-.07.063-.021-.028-.043-.049-.057-.077-.007-.014.029-.035.043-.057q.03.03.084.07M15.992 19.094c.05 0 .091-.007.155-.007-.078.085-.078.085-.155.007M15.603 17.76c-.07.021-.127.035-.204.056.063-.098.113-.127.204-.056M8.156 18.388c.043-.014.085-.02.128-.035.007.014.007.028.014.042a1 1 0 0 0-.12.05q-.01-.023-.022-.057M9.992 17.986l-.05.07c-.014-.014-.035-.028-.035-.042 0-.028.014-.05.021-.078.021.015.035.029.064.05M12.801 18.41q-.02.04-.028.049a.5.5 0 0 1-.07.056c-.008-.014-.022-.028-.022-.035q.043-.043.085-.078s.014.007.035.007M16.203 20.096c-.098-.063-.091-.141-.028-.261.014.113.021.19.028.261 0 0-.007.007 0 0M10.204 19.13c.042-.036.084-.064.14-.113-.006.035 0 .063-.013.07q-.053.041-.106.07c-.007-.006-.014-.02-.021-.027M13.444 18.819c-.036-.014-.071-.021-.106-.035.007-.022.014-.036.02-.057q.053.023.107.035c-.014.029-.021.043-.021.057M16.196 20.103c.07-.007.141-.014.163.106-.078-.014-.12-.056-.163-.106M16.93 18.706a.5.5 0 0 1-.091.063s-.036-.028-.028-.042c.014-.028.035-.057.049-.085a.5.5 0 0 1 .07.064M16.846 17.703c.007-.07.021-.134.028-.204.014 0 .028.007.043.007-.008.07-.015.134-.029.204-.007 0-.02-.007-.042-.007M17.178 18.96c.042-.007.077-.021.12-.028.007.014.007.028.014.042l-.113.042zM14.107 19.708c-.035.007-.063.028-.07.021-.022-.02-.036-.05-.05-.077.021 0 .042-.015.056-.007.022.007.036.028.064.063M9.074 19.306c0 .042.007.084.007.12-.014 0-.035 0-.035-.007a.6.6 0 0 1-.014-.113zM11.015 19.497l-.106.063c-.007-.007-.014-.021-.02-.028.035-.029.07-.05.105-.078zM14.185 19.39c.02.07.042.113.07.19-.084-.056-.113-.098-.07-.19M9.356 16.51c.022-.035.036-.07.057-.105.014.007.035.021.028.021-.014.035-.035.07-.05.106a.2.2 0 0 1-.035-.021M17.439 17.343v-.183c.014 0 .02-.007.035-.007.014.028.042.063.028.085-.014.035-.042.063-.063.105M13.712 17.153c-.021-.021-.043-.035-.057-.05.029-.014.057-.035.085-.049.007-.007.021.007.035.014a.24.24 0 0 1-.063.085M18.025 17.012v.127h-.029v-.127zM18.3 17.216c-.028.021-.05.05-.057.043-.028-.015-.049-.043-.077-.064.014-.014.035-.042.035-.035.035.014.064.035.099.056M8.77 17.654c-.028-.035-.056-.063-.084-.099l.05-.05c.02.036.049.079.07.114-.014.014-.028.021-.035.035M17.51 15.79c-.029.022-.043.043-.064.057-.014-.021-.035-.042-.042-.07 0-.015.028-.029.042-.05zM5.714 18.219c-.021.007-.035.021-.05.021s-.02-.028-.028-.042c.021-.007.036-.014.057-.014.007 0 .014.02.02.035M18.032 18.325c-.021-.022-.05-.036-.05-.05 0-.021.015-.042.029-.056.007-.007.042.014.042.02q0 .032-.021.086M16.676 18.607c.015.035.029.064.043.099-.014.007-.036.014-.05.02l-.02-.105c.006-.014.02-.014.027-.014M13.528 18.748c-.014-.035-.035-.064-.028-.07a.2.2 0 0 1 .056-.05c.008.014.029.035.022.05 0 .02-.022.035-.05.07M15.97 17.683l-.07.049c-.007-.014-.028-.035-.028-.043q.023-.029.056-.049c0 .007.021.028.043.043M13.641 17.428c.028.007.056.021.092.028-.007.015-.014.036-.014.036l-.092-.021a.1.1 0 0 1 .014-.043M9.138 17.463q.023.031.035.05c-.014.014-.035.028-.05.028s-.028-.021-.042-.035c.021-.014.035-.029.057-.043M11.848 17.513c.007.028.014.05.007.07-.007.014-.028.022-.042.036-.007-.022-.021-.043-.014-.057 0-.014.028-.028.05-.05M7.507 17.937c-.035.028-.064.063-.099.091-.014-.014-.028-.02-.042-.035l.084-.106a.4.4 0 0 1 .057.05M12.71 19.617l-.043-.106c.021-.007.035-.007.056-.014a1 1 0 0 1 .015.113c-.008 0-.022.007-.029.007M7.281 19.645c.028-.029.057-.064.085-.092q.009.01.028.02c-.021.036-.05.072-.07.107q-.022-.023-.043-.035M5.213 19.27c.035-.014.07-.02.113-.035 0 0 .007.021.014.036l-.12.02c-.007 0-.007-.013-.007-.02M5.29 18.734c.029.036.05.05.05.064 0 .021-.014.05-.021.07-.014-.014-.036-.028-.043-.042 0-.021.014-.042.014-.092M15.117 18.727c.014-.021.02-.035.035-.057.014.007.042.014.042.029 0 .014-.014.035-.021.05-.021 0-.035-.008-.056-.022M16.26 18.946c.028.035.05.056.05.077 0 .022-.029.043-.043.064a.3.3 0 0 1-.035-.078c0-.007.014-.028.028-.063M15.01 15.89c-.02.007-.042.02-.042.02-.014-.02-.028-.049-.042-.07a.1.1 0 0 1 .035-.014c.021.014.035.042.05.064"/><path fill="#FAAF5C" d="M18.745 17.083v.183l.007-.007c-.099-.078-.099-.085-.007-.177M10.267 17.273c-.014-.021-.035-.042-.035-.056s.028-.029.042-.043c.014.014.035.029.035.043 0 .02-.02.035-.042.056M18.533 16.8c-.021-.007-.036-.007-.043-.014.015-.021.029-.05.043-.07 0 0 .021.006.035.013q-.023.042-.035.071M15.018 20.061c-.007.015-.029.036-.043.05-.007-.014-.028-.035-.028-.043a.4.4 0 0 1 .05-.063c.014.021.014.028.02.056M15.808 17.012c-.02-.029-.028-.036-.035-.043.014-.014.035-.028.05-.042.006.014.013.02.013.035-.007.014-.014.028-.028.05M16.07 16.906c.013.028.027.05.027.056-.007.014-.028.021-.042.035-.007-.014-.021-.028-.021-.035.007-.02.021-.035.035-.056M12.604 17.146a.1.1 0 0 1-.036.028c-.007-.014-.014-.035-.02-.049l.013-.014q.02.023.043.035M18.039 16.722l.113.021c-.007.015-.007.022-.014.036-.029-.014-.064-.036-.1-.057M8.425 17.662c-.014.014-.029.02-.043.035a.3.3 0 0 1-.02-.05c.006-.014.034-.02.049-.028.007.007.007.021.014.043M12.907 17.62c.021.006.042.013.042.02 0 .021-.007.036-.014.057-.014-.007-.028-.007-.035-.021 0-.014.007-.036.007-.057M19.26 17.597c.014.028.035.057.05.085-.008.007-.015.007-.022.014-.028-.021-.05-.042-.077-.064.02-.014.035-.02.05-.035M19.599 17.696q-.041.01-.07.022s-.015-.029-.015-.036a.3.3 0 0 1 .064-.035c.007.007.007.021.02.05M18.97 17.76c-.02.014-.027.028-.042.042-.014-.014-.035-.028-.035-.042s.021-.028.035-.042c.014.014.029.02.043.042M16.112 17.54c-.014.008-.029.008-.043.015-.007-.021-.014-.035-.014-.056l.035-.015zM14.735 17.548q-.012.019-.035.05c-.007-.015-.021-.036-.014-.05 0-.014.02-.021.028-.035q.01.012.021.035M8.17 17.435c-.035-.007-.07-.007-.105-.014v-.028q.052-.002.106.007zM15.59 15.812a.4.4 0 0 0-.057.042c-.007-.014-.021-.028-.021-.035.014-.022.035-.036.05-.057.006.021.013.028.027.05M17.467 16.497c.007.035.021.07.028.105-.007 0-.021.008-.028.008-.007-.036-.021-.071-.028-.106.007 0 .014-.007.028-.007M16.888 16.645c-.014-.007-.035-.014-.035-.021 0-.014.007-.036.014-.05.014.007.028.007.028.014 0 .014-.007.036-.007.057M17.17 16.595c.029.007.064.021.092.029 0 0-.007.02-.007.035-.028-.014-.063-.028-.091-.043 0 0 .007-.014.007-.02M15.067 19.292c-.007-.021-.021-.036-.021-.043l.042-.042c.007.014.021.028.014.035a.13.13 0 0 1-.035.05M15.957 20.344c-.022.014-.05.02-.071.035-.007-.014-.014-.035-.014-.035l.063-.043a.1.1 0 0 1 .021.043M9.13 18.939c.015-.007.029-.014.05-.028.007.014.021.042.014.042-.014.014-.035.014-.05.028 0-.014-.006-.02-.013-.042M13.38 18.989c-.021.02-.035.042-.057.056a.05.05 0 0 1-.028-.014l.043-.064c0 .007.02.014.042.021M6.505 18.346c-.007-.028-.022-.042-.022-.063 0-.015.022-.021.036-.029.007.014.028.036.02.05.008.014-.02.021-.034.042M17.206 18.092c-.021.007-.043.02-.07.028 0 0-.022-.028-.015-.028l.064-.043q0 .01.02.043M17.82 18.24c-.021-.014-.028-.014-.042-.021.014-.015.02-.036.042-.05.007-.007.021 0 .035 0a.3.3 0 0 0-.035.07M16.076 18.24l-.042.021c-.007-.014-.021-.035-.028-.05l.05-.02c.006.014.013.035.02.049M10.556 17.824c-.02.014-.035.035-.05.035-.013 0-.034-.014-.049-.028a.13.13 0 0 1 .057-.05zM16.225 17.979a.2.2 0 0 0 .05.042c-.015.014-.022.028-.043.035-.007 0-.028-.014-.028-.021q0-.012.02-.056M9.392 18.056c-.014.007-.035.028-.035.021q-.022-.023-.043-.056.023-.012.036-.014c.014.014.028.028.042.05M15.759 18c-.014.014-.021.028-.036.042-.014-.014-.035-.028-.028-.042s.028-.028.043-.043c0 .022.007.029.02.043M18.957 16.99c.049-.042.07-.056.098-.077-.007.02-.014.049-.028.07q-.009-.002-.07.007M17.693 18.614c.014.028.028.05.02.063-.006.014-.027.021-.041.029-.008-.015-.022-.029-.015-.036 0-.02.015-.035.036-.056M10.867 18.706h.099v.028c-.035 0-.064.007-.1.007zM18.004 18.84q-.033.009-.064.028-.002-.023.007-.035c.014-.014.035-.021.05-.036 0 .014 0 .021.006.043M14.933 18.304c.014.02.028.05.021.056a.06.06 0 0 1-.05.028c-.006 0-.027-.028-.027-.042.006-.014.028-.028.056-.042M12.159 18.43a.2.2 0 0 1-.043.036.1.1 0 0 1-.035-.015c.014-.014.021-.028.042-.042 0 0 .022.014.036.021M15.999 15.522l-.028.028a.2.2 0 0 1-.05-.035c.014-.014.028-.035.035-.028a.2.2 0 0 1 .043.035"/><path fill="url(#y)" d="M9.85 6.064a.692.692 0 1 0 0-1.384.692.692 0 0 0 0 1.384"/><path fill="url(#z)" d="M11.255 2.238C11.835.656 13.84-.05 14.262 0c0 0-.162.226-.437.53-.424.472-.283.896-1.115 1.82-.488.551-1.455-.112-1.455-.112"/><path fill="url(#A)" d="M14.022.021c-.296.176-.515.381-.6.565 0 0-.48.148-.543.183l.374-.028c.127-.007-.219.459-.219.459s-.487.141-.685.275c0 0 .311-.092.438-.078.12.008-.205.516-.522.46-.283-.057-.558-.163-.749-.142-.049.078-.098.162-.14.24.02.106.063.205.063.205l1.023.24.283-.085c.79-.896.663-1.313 1.073-1.779.275-.303.437-.53.437-.53a.6.6 0 0 0-.233.015"/><path fill="#407817" d="M12.42 1.976c-.261.1-.48-.07-.96-.176a3 3 0 0 0-.205.43s.96.671 1.454.12c.833-.924.692-1.348 1.116-1.82.275-.304.437-.53.437-.53-.995.346-1.164 1.722-1.842 1.976"/><path fill="url(#B)" d="M11.396 2.047C11.022 1.017 9.102.325 8.474.233c-.198-.028-.127.07.127.176.261.106 1.2.833 1.25 1.49.049.656 1.545.148 1.545.148"/><path fill="url(#C)" d="M8.601.41c.254.105 1.158.797 1.242 1.44l1.024.246s.36-.077.459-.211a1.6 1.6 0 0 0-.177-.262c-.41-.204-1.002-.176-1.066-.19-.063-.007-.282-.282-.233-.29.12-.02.438.05.438.05-.113-.085-.565-.113-.565-.113-.162-.226-.345-.36-.24-.346.106.014.191-.021.191-.021S9.356.678 9.286.649s-.43-.296-.812-.416c-.198-.028-.127.07.127.176"/><path fill="#407817" d="M11.396 2.047a1.4 1.4 0 0 0-.127-.254c-.677-.367-1.178-.177-1.348-.395-.17-.226-.656-.84-1.405-1.158-.014 0-.028-.007-.042-.007-.198-.028-.127.07.127.176.261.106 1.2.833 1.25 1.49.049.656 1.545.148 1.545.148"/><path fill="url(#D)" d="M14.128 4.257c1.087-.19 1.546-.629 2.23-1.207.685-.58 1.596-.82 2.111-.657 0 0-.67-1.143-3.303-1.115s-3.48 2.082-3.48 2.082z"/><path fill="url(#E)" d="M15.166 1.285q-.56.011-1.024.127c-.65.268-1.171.536-1.517.762a4.5 4.5 0 0 0-.452.445c.05.063.41.17.896-.184 1.9-1.376 4.927-.452 3.77-.974-.438-.113-.988-.183-1.673-.176"/><path fill="url(#F)" d="M17.079 2.096c-.445.057-1.278-.19-1.63-.219 0 0 .776.297.86.466 0 0 .057.078-.14.113-.198.043-.558.34-.558.34s-1.01-.326-1.525-.255c0 0 .981.17 1.221.424s-.96.374-.96.374l.664.663c.522-.226.882-.55 1.348-.946.685-.579 1.595-.819 2.11-.656-.197-.247-.945-.36-1.39-.304"/><path fill="#407817" d="M15.97 2.802a3.2 3.2 0 0 1-1.2.756c-.84-.706-1.623-1.221-2.188-1.349-.141 0-.092.085-.134.128.663.296 1.567.896 2.365 1.75.635-.233 1.023-.586 1.546-1.023.684-.58 1.595-.82 2.11-.657-.621-.353-1.934-.17-2.499.395"/><path fill="url(#G)" d="m11.15 2.287.077-.317s-.332-.149-.854-.269c-.31-.113-.727-.204-1.292-.24-2.604-.176-4.08 2.217-4.214 2.415-.134.19-.07.275-.07.275l.635-.318c1.327-.487 2.626.12 2.626.12l1.376-.487 1.779-.593s.106-.275-.063-.586"/><path fill="url(#H)" d="M5.432 3.833c1.327-.487 2.626.12 2.626.12l1.376-.487 1.779-.593s.106-.283-.056-.593l.077-.318s-.24-.113-.65-.212c-.38.191-.917.325-1.623.177-.967-.205-2.506.621-3.416 1.08-.396.43-.628.79-.678.868-.134.19-.07.275-.07.275z"/><path fill="url(#I)" d="M11.707 2.125c.995-.042 5.555 2.767 4.8 7.002 0 0-.36-.931-1.532-1.433-.868-.374-1.92-.967-2.59-2.696-.763-1.941-.678-2.873-.678-2.873"/><path fill="url(#J)" d="M15.794 5.838c.558.854.473 2.018-.219 1.066-.6-.826-2.513-2.097-2.068-3.96a7.4 7.4 0 0 0-.854-.516l-.939.036c.035.43.17 1.263.664 2.54.677 1.73 1.722 2.323 2.59 2.697 1.18.501 1.532 1.433 1.532 1.433.282-1.595-.183-2.986-.932-4.101-.028.198.007.466.226.805"/><path fill="url(#K)" d="m16.507 9.134.042-.282c-.07-1.003-.804-1.017-1.13-1.341-.324-.325-.402-1.342-.402-1.342-.148.509.064 1.165.064 1.165s-.628-.078-.861-.656c-.24-.586-.07-1.892-.07-1.892-.297.402-.163 1.913-.163 1.913-.593-.685-.685-1.574-.565-2.308.085-.544.155-1.066-.063-1.56a4 4 0 0 0-.403-.248l-.247 1.243-.07 1.722c.663 1.306 1.574 1.814 2.343 2.139 1.172.508 1.525 1.447 1.525 1.447"/><path fill="url(#L)" d="M10.853 17.11c1.37-4.94.854-8.47.691-10.771l.954-1.687s1.807 6.134.755 12.423c0 0-.494-.176-.812-.176s-1.01.367-1.588.212"/><path fill="url(#M)" d="M12.067 8.336c.261 1.723-.727 8.055-.819 8.436-.091.38.353.091.72-.353.367-.452.05-.953.205-2.443.155-1.489.43-5.315.184-5.915-.255-.6-.53-1.292-.29.275"/><path fill="url(#N)" d="m12.498 4.645-.883 2.548c.05.572.1 1.2.127 1.899 1.694-1.476 1.15-.389 1.073 1.955-.035 1.136-.36 4.85-.07 5.88.226.042.437.12.487.134h.014c1.059-6.282-.748-12.416-.748-12.416"/><path fill="url(#O)" d="m13.472 10.334-.043-.452c-.423.515-1.044 1.037-1.666 1.045 0 .07 0 .134-.007.204.29.028.847-.063 1.716-.797"/><path fill="url(#P)" d="M11.756 9.367c0 .07.007.148.007.219.346-.057.996-.269 1.511-1.073-.021-.163-.05-.325-.07-.48-.177.494-.834 1.08-1.448 1.334"/><path fill="url(#Q)" d="M13.556 11.675c-.614.508-1.058.692-1.87.847-.007.056-.007.113-.014.162a3.57 3.57 0 0 0 1.898-.614q-.002-.192-.014-.395"/><path fill="url(#R)" d="m13.415 15.91.043-.43c-.572.345-1.624.628-2.365.684l-.064.247c1.024.035 2.04-.353 2.386-.5"/><path fill="url(#S)" d="M13.563 13.927c.007-.177.014-.346.014-.523l-.007.007c-.353.403-1.122 1.038-2.117.989-.014.063-.021.134-.035.197.917.184 1.849-.444 2.145-.67"/><path fill="url(#T)" d="M11.679 8.018c.007.057.007.12.014.177.423-.12.988-.41 1.355-1.101q-.031-.18-.063-.34a2.6 2.6 0 0 1-1.306 1.264"/><path fill="#76AB50" d="M6.427 10.602c.614-1.49 1.645-2.061 2.301-3.254.53-.967.833-2.181 1.228-2.781.396-.6.12-1.546.12-1.546s-3.783.967-4.34 3.593c-.559 2.626.69 3.988.69 3.988"/><path fill="url(#U)" d="M6.427 10.602c.614-1.49 1.645-2.061 2.301-3.254.53-.967.833-2.181 1.228-2.781.396-.6.12-1.546.12-1.546s-3.783.967-4.34 3.593c-.559 2.626.69 3.988.69 3.988"/><path fill="url(#V)" d="M10.083 3.021s-.324.085-.79.268c.042.657-.41 1.264-.593 1.405-.198.162-1.497 1.27-1.892 2.76s-.67 1.758-.847.727c-.141-.826-.028-2.068 1.179-3.685-.657.537-1.214 1.229-1.398 2.118-.557 2.619.692 3.988.692 3.988.614-1.49 1.645-2.061 2.301-3.254.53-.967.833-2.181 1.228-2.781.396-.593.12-1.546.12-1.546"/><path fill="url(#W)" d="M6.886 7.44c.219.085.303.798.459 1.024.05.077.89-1.024.89-1.024s-.24-.967-.643-1.334c0 0 .473.176.727.72.247.544.508-.861.536-1.108.021-.247-.346-.897-.473-1.03 0 0 .487.564.706.43a.86.86 0 0 0 .417-.861c-.057-.438.19-.982.19-.982l-.007.784-.423 1.906-.932 1.913-1.744 2.124-.254.615s-.028-.996.79-1.73l.072-.395z"/><path fill="#407817" d="M10.147 4.059c.085-.516-.07-1.038-.07-1.038s-.128.035-.347.106c-.063.021-.176.656-.12 1.122a.75.75 0 0 1-.105.473c-.523.883-.445 1.927-1.335 3.021-.825 1.017-1.545 1.786-1.863 2.71.07.1.113.15.113.15.614-1.49 1.645-2.062 2.301-3.255.53-.967.833-2.181 1.228-2.781.1-.148.155-.318.184-.487v-.007c.014 0 .014-.007.014-.014M16.168 8.188c-.55-.607-1.906-.819-2.393-1.49-.494-.67-.776-.98-.536-1.976.17-.72.148-1.468-.029-1.976-.345-.325-.72-.381-.889-.473.339.282.89.925.777 1.645a8.2 8.2 0 0 1-.431 1.7c.664 1.257 1.553 1.751 2.315 2.076 1.179.501 1.532 1.433 1.532 1.433l.042-.282a1.8 1.8 0 0 0-.388-.657"/><path fill="url(#X)" d="M10.796 8.71c.615-.811-.974-2.3-.974-4.263 0-2.195.996-2.697 1.412-2.478 0 0 1.864-.042 1.899 1.92.021 1.384-.657 4.334-2.337 4.821"/><path fill="url(#Y)" d="M12.23 2.224c.324.451.592 1.157.55 2.223-.092 2.605-1.602 3.41-1.264 2.217.304-1.052-1.27-2.76-1.327-4.109-.219.396-.374 1.003-.374 1.885 0 1.962 1.588 3.452.974 4.264 1.68-.494 2.358-3.445 2.337-4.829-.014-.924-.445-1.404-.897-1.651"/><path fill="url(#Z)" d="M7.373 3.522c.494-.79 1.03-1.171 1.278-1.235 0 0-.91.65-.946 1.172"/><path fill="#407817" d="M9.046.6c.303-.014.593.099.628.113s.035.042-.127 0-.381-.028-.381-.028M9.561 1.044c.656.029.819.191.664.135-.149-.057-.438-.1-.565-.029-.12.078-.099-.106-.099-.106M13.662.501c-.374.035-.72.226-.762.247s-.035.064.155-.021.473-.099.473-.099M13.204 1.122c-.805.198-.96.438-.791.325.17-.106.508-.226.692-.17.176.064.099-.155.099-.155M17.008 2.308c-1.341-.593-1.814-.416-1.454-.381s.96.226 1.144.501.31-.12.31-.12M16.098 2.88c-1.723-.614-2.316-.318-1.857-.318.452 0 1.228.177 1.475.523.248.345.382-.205.382-.205"/><path fill="url(#aa)" d="M8.39 7.75c-.114-1.327-1.088-1.962-.763-1.574.296.346.522 1.038.579 1.934.063-.077.127-.162.183-.24z"/><path fill="url(#ab)" d="M9.194 6.339c-.12-.381-.339-1.003-.607-1.377-.318-.452-.332-.346-.021.198.254.445.38 1.066.444 1.61.064-.142.128-.29.184-.431"/><path fill="url(#ac)" d="M7.232 9.261c-.007-.798-.205-1.899-.346-1.821q0 .137.042.275c.205.664.113 1.172.134 1.779.05-.085.113-.162.17-.233"/><path fill="#407817" d="M14.262 7.122c-.367-.41-.339-1.602-.148-2.153.184-.53-.395.007-.346 2.026q.265.21.53.367c.07-.028.091-.099-.036-.24M15.356 7.638c-.317-.247-.395-.967-.331-1.39.063-.403-.283.056.02 1.481q.17.076.319.163c.091-.057.14-.141-.008-.254"/><path fill="url(#ad)" d="M8.34 3.713a10 10 0 0 0-.367.205c-3.057 2.858-1.63 6.833-1.63 6.833l.091-.149c-.974-3.007.6-5.696 1.906-6.89"/><path fill="url(#ae)" d="M11.615 2.308a8 8 0 0 0-.24-.339c-.085-.007-.14-.007-.14-.007-.022-.007-.036-.014-.057-.021-.078-.028-.177-.014-.29.028.727.515 1.221 2.16 1.045 3.643 0 0 .586-1.963-.318-3.304"/><path fill="url(#af)" d="M11.432 1.955c-.12-.007-.19-.007-.19-.007a1 1 0 0 0-.156-.028c.727.402 1.108 2.012.896 3.367 0 .021-.049.318-.049.318.035.007.177-.24.184-.346.197-1.518-.22-2.71-.685-3.304"/><path fill="url(#ag)" d="M7.232 2.336s-.77.551-.876 1.024a4.8 4.8 0 0 1 1.137-.05l.021-.014s-.572.007-.868-.113c-.17-.056.586-.847.586-.847"/><path fill="url(#ah)" d="M8.65 2.287s-.776.558-.924 1.052c.473.05.946-.064 1.334-.34.374-.26.932-.642 1.722-1.185-.748.212-1.779.981-2.103 1.235-.325.247-.692.226-.678.036.035-.248.65-.798.65-.798"/><path fill="url(#ai)" d="M6.568 2.139c-1.037.67-1.616 1.616-1.7 1.73-.135.19-.071.274-.071.274l.635-.317c.268-.1.536-.148.79-.17.113-.268.205-.53.127-.543-.162-.021-1.129.65-.96.325.135-.226.629-.848 1.18-1.3"/><path fill="#407817" d="M7.973 3.917c.896-.529 1.715-.6 1.976-.677.29-.946.91-1.405 1.229-1.292a5 5 0 0 0-.389-.134C10 2.357 9.441 2.746 9.067 3a1.96 1.96 0 0 1-1.355.332c-.706-.078-1.39-.043-2.167.247-.727.268-.742.564-.742.564l.46-.233c.148-.077.303-.14.472-.176 1.01-.247 1.956.07 2.238.183"/><path fill="url(#aj)" d="M6.032 3.501c.466-.748.967-1.101 1.2-1.165 0 0-.854.607-.89 1.102"/><path fill="url(#ak)" d="M10.648 6.48c-.339-.339-.515-1.165-.515-1.165l.155-.367s-.212.092-.282-.247c-.346-1.652.53-2.195 1.03-2.718l-.035-.063c-.473.021-1.179.67-1.179 2.527 0 1.962 1.589 3.452.974 4.264.65-.495.184-1.892-.148-2.231"/><path fill="url(#al)" d="M10.81 3.868c-.07.304-.29.897-.811 1.765l.063.212s.19-.233.304-.509c.176-.423.38-1.08.444-1.468"/><path fill="#4B8C1C" d="m9.999 5.626-.043-.148z"/><path fill="url(#am)" d="M9.9 5.224q.043.209.099.409c1.016-1.673.875-2.33.762-1.85-.113.46-.466 1.222-.861 1.44"/><path fill="url(#an)" d="m10.677 6.572-.24.211c.042.1.091.205.134.297.543-.614.663-1.694.706-2.005l-.163.614z"/><path fill="url(#ao)" d="M11.199 5.153c-.113.459-.459 1.207-.847 1.433.05.113.092.219.141.317.953-1.595.819-2.216.706-1.75"/><path fill="url(#ap)" d="M11.721 1.426c.628.021 1.017-.621 1.61-1.045a1.5 1.5 0 0 0 .268-.24c-.565.198-1.341.621-1.878 1.285"/></g><defs><linearGradient id="d" x1="13.536" x2="11.81" y1="20.038" y2="17.032" gradientUnits="userSpaceOnUse"><stop stop-color="#FFD87C"/><stop offset=".343" stop-color="#FFD981"/><stop offset=".767" stop-color="#FFDE90"/><stop offset="1" stop-color="#FFE19C"/></linearGradient><linearGradient id="y" x1="10.233" x2="9.102" y1="4.527" y2="7.047" gradientUnits="userSpaceOnUse"><stop stop-color="#3C2200"/><stop offset="1" stop-color="#643800"/></linearGradient><linearGradient id="z" x1="12.954" x2="12.617" y1="2.178" y2=".353" gradientUnits="userSpaceOnUse"><stop stop-color="#4B8C1C"/><stop offset="1" stop-color="#76AB50"/></linearGradient><linearGradient id="A" x1="13.757" x2="11.972" y1="2.217" y2="-.03" gradientUnits="userSpaceOnUse"><stop stop-color="#4B8C1C"/><stop offset="1" stop-color="#4B8C1C" stop-opacity="0"/></linearGradient><linearGradient id="B" x1="10.197" x2="9.661" y1="1.926" y2=".616" gradientUnits="userSpaceOnUse"><stop stop-color="#4B8C1C"/><stop offset="1" stop-color="#76AB50"/></linearGradient><linearGradient id="C" x1="9.76" x2="9.946" y1="1.535" y2=".479" gradientUnits="userSpaceOnUse"><stop stop-color="#4B8C1C"/><stop offset="1" stop-color="#4B8C1C" stop-opacity="0"/></linearGradient><linearGradient id="D" x1="13.257" x2="16.134" y1="2.928" y2="2.571" gradientUnits="userSpaceOnUse"><stop stop-color="#4B8C1C"/><stop offset="1" stop-color="#76AB50"/></linearGradient><linearGradient id="E" x1="14.242" x2="15.693" y1="2.377" y2="1.247" gradientUnits="userSpaceOnUse"><stop stop-color="#76AB50" stop-opacity="0"/><stop offset="1" stop-color="#76AB50"/></linearGradient><linearGradient id="F" x1="16.334" x2="16.234" y1="4" y2="1.152" gradientUnits="userSpaceOnUse"><stop stop-color="#4B8C1C"/><stop offset="1" stop-color="#4B8C1C" stop-opacity="0"/></linearGradient><linearGradient id="G" x1="8.486" x2="7.742" y1="5.667" y2="1.56" gradientUnits="userSpaceOnUse"><stop stop-color="#4B8C1C"/><stop offset="1" stop-color="#76AB50"/></linearGradient><linearGradient id="H" x1="11.031" x2="6.951" y1="12.617" y2="-.314" gradientUnits="userSpaceOnUse"><stop stop-color="#4B8C1C"/><stop offset="1" stop-color="#4B8C1C" stop-opacity="0"/></linearGradient><linearGradient id="I" x1="11.217" x2="16.117" y1="4.96" y2="6.072" gradientUnits="userSpaceOnUse"><stop stop-color="#4B8C1C"/><stop offset="1" stop-color="#76AB50"/></linearGradient><linearGradient id="J" x1="12.531" x2="16.223" y1="8.788" y2="1.803" gradientUnits="userSpaceOnUse"><stop stop-color="#4B8C1C"/><stop offset="1" stop-color="#4B8C1C" stop-opacity="0"/></linearGradient><linearGradient id="K" x1="14.162" x2="14.966" y1="6.938" y2="5.405" gradientUnits="userSpaceOnUse"><stop stop-color="#4B8C1C"/><stop offset="1" stop-color="#4B8C1C" stop-opacity="0"/></linearGradient><linearGradient id="L" x1="11.796" x2="14.574" y1="10.898" y2="10.819" gradientUnits="userSpaceOnUse"><stop stop-color="#A3541E"/><stop offset="1" stop-color="#512D00"/></linearGradient><linearGradient id="M" x1="9.804" x2="13.345" y1="12.178" y2="12.148" gradientUnits="userSpaceOnUse"><stop stop-color="#C86F34"/><stop offset="1" stop-color="#A3541E"/></linearGradient><linearGradient id="N" x1="7.756" x2="15.287" y1="12.537" y2="10.067" gradientUnits="userSpaceOnUse"><stop stop-color="#A3541E"/><stop offset="1" stop-color="#512D00"/></linearGradient><linearGradient id="O" x1="13.597" x2="12.406" y1="10.062" y2="10.776" gradientUnits="userSpaceOnUse"><stop stop-color="#3C2200"/><stop offset="1" stop-color="#643800"/></linearGradient><linearGradient id="P" x1="13.319" x2="12.188" y1="8.307" y2="9.2" gradientUnits="userSpaceOnUse"><stop stop-color="#3C2200"/><stop offset="1" stop-color="#643800"/></linearGradient><linearGradient id="Q" x1="13.564" x2="11.867" y1="11.972" y2="12.448" gradientUnits="userSpaceOnUse"><stop stop-color="#3C2200"/><stop offset="1" stop-color="#643800"/></linearGradient><linearGradient id="R" x1="13.535" x2="12.106" y1="15.832" y2="15.981" gradientUnits="userSpaceOnUse"><stop stop-color="#3C2200"/><stop offset="1" stop-color="#643800"/></linearGradient><linearGradient id="S" x1="13.398" x2="11.97" y1="13.878" y2="14.215" gradientUnits="userSpaceOnUse"><stop stop-color="#3C2200"/><stop offset="1" stop-color="#643800"/></linearGradient><linearGradient id="T" x1="12.618" x2="11.576" y1="7.357" y2="8.042" gradientUnits="userSpaceOnUse"><stop stop-color="#3C2200"/><stop offset="1" stop-color="#643800"/></linearGradient><linearGradient id="U" x1="10.015" x2="7.366" y1="3.345" y2="6.708" gradientUnits="userSpaceOnUse"><stop stop-color="#4B8C1C"/><stop offset="1" stop-color="#76AB50"/></linearGradient><linearGradient id="V" x1="10.691" x2="6.851" y1="12.997" y2="3.531" gradientUnits="userSpaceOnUse"><stop stop-color="#4B8C1C"/><stop offset="1" stop-color="#4B8C1C" stop-opacity="0"/></linearGradient><linearGradient id="W" x1="8.667" x2="7.121" y1="7.449" y2="6.29" gradientUnits="userSpaceOnUse"><stop stop-color="#4B8C1C"/><stop offset="1" stop-color="#4B8C1C" stop-opacity="0"/></linearGradient><linearGradient id="X" x1="9.574" x2="11.548" y1="9.104" y2="4.208" gradientUnits="userSpaceOnUse"><stop stop-color="#4B8C1C"/><stop offset="1" stop-color="#76AB50"/></linearGradient><linearGradient id="Y" x1="11.475" x2="11.475" y1="18.546" y2=".122" gradientUnits="userSpaceOnUse"><stop stop-color="#4B8C1C"/><stop offset="1" stop-color="#4B8C1C" stop-opacity="0"/></linearGradient><linearGradient id="Z" x1="8.174" x2="7.916" y1="2.001" y2="3.43" gradientUnits="userSpaceOnUse"><stop stop-color="#4B8C1C"/><stop offset=".999" stop-color="#407817"/></linearGradient><linearGradient id="aa" x1="7.216" x2="8.01" y1="6.017" y2="7.188" gradientUnits="userSpaceOnUse"><stop stop-color="#4B8C1C"/><stop offset=".999" stop-color="#407817"/></linearGradient><linearGradient id="ab" x1="7.927" x2="8.681" y1="4.923" y2="5.716" gradientUnits="userSpaceOnUse"><stop stop-color="#4B8C1C"/><stop offset=".999" stop-color="#407817"/></linearGradient><linearGradient id="ac" x1="6.802" x2="7.1" y1="7.551" y2="8.821" gradientUnits="userSpaceOnUse"><stop stop-color="#4B8C1C"/><stop offset=".999" stop-color="#407817"/></linearGradient><linearGradient id="ad" x1="7.15" x2="7.249" y1="5.183" y2="9.221" gradientUnits="userSpaceOnUse"><stop stop-color="#4B8C1C"/><stop offset=".999" stop-color="#407817"/></linearGradient><linearGradient id="ae" x1="9.912" x2="12.018" y1="1.669" y2="4.239" gradientUnits="userSpaceOnUse"><stop stop-color="#4B8C1C"/><stop offset="1" stop-color="#76AB50"/></linearGradient><linearGradient id="af" x1="11.841" x2="10.026" y1="4.033" y2=".982" gradientUnits="userSpaceOnUse"><stop stop-color="#4B8C1C"/><stop offset=".999" stop-color="#407817"/></linearGradient><linearGradient id="ag" x1="6.921" x2="6.981" y1="3.623" y2="2.477" gradientUnits="userSpaceOnUse"><stop stop-color="#4B8C1C"/><stop offset="1" stop-color="#4B8C1C" stop-opacity="0"/></linearGradient><linearGradient id="ah" x1="9.195" x2="9.289" y1="3.781" y2="1.969" gradientUnits="userSpaceOnUse"><stop stop-color="#4B8C1C"/><stop offset="1" stop-color="#4B8C1C" stop-opacity="0"/></linearGradient><linearGradient id="ai" x1="5.73" x2="5.655" y1="3.94" y2="2.735" gradientUnits="userSpaceOnUse"><stop stop-color="#4B8C1C"/><stop offset="1" stop-color="#4B8C1C" stop-opacity="0"/></linearGradient><linearGradient id="aj" x1="6.842" x2="6.584" y1="1.761" y2="3.189" gradientUnits="userSpaceOnUse"><stop stop-color="#4B8C1C"/><stop offset=".999" stop-color="#407817"/></linearGradient><linearGradient id="ak" x1="9.897" x2="11.776" y1="2.403" y2="7.851" gradientUnits="userSpaceOnUse"><stop stop-color="#4B8C1C"/><stop offset="1" stop-color="#4B8C1C" stop-opacity="0"/></linearGradient><linearGradient id="al" x1="10.044" x2="10.833" y1="5.831" y2="3.875" gradientUnits="userSpaceOnUse"><stop stop-color="#4B8C1C"/><stop offset="1" stop-color="#4B8C1C" stop-opacity="0"/></linearGradient><linearGradient id="am" x1="10.825" x2="9.843" y1="4.371" y2="4.981" gradientUnits="userSpaceOnUse"><stop stop-color="#4B8C1C"/><stop offset=".999" stop-color="#407817"/></linearGradient><linearGradient id="an" x1="10.579" x2="11.085" y1="7.021" y2="5.355" gradientUnits="userSpaceOnUse"><stop stop-color="#4B8C1C"/><stop offset="1" stop-color="#4B8C1C" stop-opacity="0"/></linearGradient><linearGradient id="ao" x1="11.549" x2="10.567" y1="5.537" y2="6.147" gradientUnits="userSpaceOnUse"><stop stop-color="#4B8C1C"/><stop offset=".999" stop-color="#407817"/></linearGradient><linearGradient id="ap" x1="15.238" x2="12.719" y1="3.539" y2=".841" gradientUnits="userSpaceOnUse"><stop stop-color="#4B8C1C"/><stop offset="1" stop-color="#76AB50"/></linearGradient><radialGradient id="b" cx="0" cy="0" r="1" gradientTransform="matrix(9.10116 -.2207 .05671 2.33872 12.027 19.591)" gradientUnits="userSpaceOnUse"><stop stop-color="#fff"/><stop offset="1" stop-color="#fff" stop-opacity="0"/></radialGradient><radialGradient id="c" cx="0" cy="0" r="1" gradientTransform="matrix(-.17061 2.81328 -22.55945 -1.36814 15.449 19.125)" gradientUnits="userSpaceOnUse"><stop stop-color="#fff" stop-opacity=".5"/><stop offset="1" stop-color="#fff" stop-opacity="0"/></radialGradient><radialGradient id="e" cx="0" cy="0" r="1" gradientTransform="matrix(.66638 3.38805 -6.56436 1.29111 12.698 16.374)" gradientUnits="userSpaceOnUse"><stop stop-color="#FFCB4B"/><stop offset="1" stop-color="#FFA754" stop-opacity="0"/></radialGradient><radialGradient id="f" cx="0" cy="0" r="1" gradientTransform="matrix(8.18961 -.1986 .09911 4.08726 12.44 17.726)" gradientUnits="userSpaceOnUse"><stop stop-color="#FFCB4B"/><stop offset="1" stop-color="#FFA754" stop-opacity="0"/></radialGradient><radialGradient id="g" cx="0" cy="0" r="1" gradientTransform="matrix(3.22976 0 0 3.23012 14.803 14.666)" gradientUnits="userSpaceOnUse"><stop stop-color="#FFCB4B"/><stop offset="1" stop-color="#FFA754" stop-opacity="0"/></radialGradient><radialGradient id="h" cx="0" cy="0" r="1" gradientTransform="translate(6.405 19.116)scale(.12562)" gradientUnits="userSpaceOnUse"><stop stop-color="#FFA754"/><stop offset="1" stop-color="#FFA754" stop-opacity="0"/></radialGradient><radialGradient id="i" cx="0" cy="0" r="1" gradientTransform="matrix(.12562 0 0 .12562 10.775 16.224)" gradientUnits="userSpaceOnUse"><stop stop-color="#FFA754"/><stop offset="1" stop-color="#FFA754" stop-opacity="0"/></radialGradient><radialGradient id="j" cx="0" cy="0" r="1" gradientTransform="matrix(.10844 0 0 .10844 9.197 17.31)" gradientUnits="userSpaceOnUse"><stop stop-color="#FFA754"/><stop offset="1" stop-color="#FFA754" stop-opacity="0"/></radialGradient><radialGradient id="k" cx="0" cy="0" r="1" gradientTransform="scale(-.0688)rotate(2.77 5553.071 -3844.299)" gradientUnits="userSpaceOnUse"><stop stop-color="#FFA754"/><stop offset="1" stop-color="#FFA754" stop-opacity="0"/></radialGradient><radialGradient id="l" cx="0" cy="0" r="1" gradientTransform="matrix(.10034 0 0 .10034 8.571 19.403)" gradientUnits="userSpaceOnUse"><stop stop-color="#FFA754"/><stop offset="1" stop-color="#FFA754" stop-opacity="0"/></radialGradient><radialGradient id="m" cx="0" cy="0" r="1" gradientTransform="translate(11.498 17.889)scale(.06822)" gradientUnits="userSpaceOnUse"><stop stop-color="#FFA754"/><stop offset="1" stop-color="#FFA754" stop-opacity="0"/></radialGradient><radialGradient id="n" cx="0" cy="0" r="1" gradientTransform="matrix(.11922 0 0 .11922 12.758 17.599)" gradientUnits="userSpaceOnUse"><stop stop-color="#FFA754"/><stop offset="1" stop-color="#FFA754" stop-opacity="0"/></radialGradient><radialGradient id="o" cx="0" cy="0" r="1" gradientTransform="rotate(-177.21 5.233 9.009)scale(.11922)" gradientUnits="userSpaceOnUse"><stop stop-color="#FFA754"/><stop offset="1" stop-color="#FFA754" stop-opacity="0"/></radialGradient><radialGradient id="p" cx="0" cy="0" r="1" gradientTransform="translate(13.622 18.55)scale(.18193)" gradientUnits="userSpaceOnUse"><stop stop-color="#FFA754"/><stop offset="1" stop-color="#FFA754" stop-opacity="0"/></radialGradient><radialGradient id="q" cx="0" cy="0" r="1" gradientTransform="translate(15.183 16.488)scale(.06822)" gradientUnits="userSpaceOnUse"><stop stop-color="#FFA754"/><stop offset="1" stop-color="#FFA754" stop-opacity="0"/></radialGradient><radialGradient id="r" cx="0" cy="0" r="1" gradientTransform="matrix(.08084 0 0 .08084 15.224 17.65)" gradientUnits="userSpaceOnUse"><stop stop-color="#FFA754"/><stop offset="1" stop-color="#FFA754" stop-opacity="0"/></radialGradient><radialGradient id="s" cx="0" cy="0" r="1" gradientTransform="matrix(.05118 0 0 .05118 15.034 19.028)" gradientUnits="userSpaceOnUse"><stop stop-color="#FFA754"/><stop offset="1" stop-color="#FFA754" stop-opacity="0"/></radialGradient><radialGradient id="t" cx="0" cy="0" r="1" gradientTransform="matrix(.10282 0 0 .10282 16.47 19.01)" gradientUnits="userSpaceOnUse"><stop stop-color="#FFA754"/><stop offset="1" stop-color="#FFA754" stop-opacity="0"/></radialGradient><radialGradient id="u" cx="0" cy="0" r="1" gradientTransform="matrix(.11921 0 0 .11921 16.378 16.026)" gradientUnits="userSpaceOnUse"><stop stop-color="#FFA754"/><stop offset="1" stop-color="#FFA754" stop-opacity="0"/></radialGradient><radialGradient id="v" cx="0" cy="0" r="1" gradientTransform="matrix(.08297 0 0 .08297 19.346 16.526)" gradientUnits="userSpaceOnUse"><stop stop-color="#FFA754"/><stop offset="1" stop-color="#FFA754" stop-opacity="0"/></radialGradient><radialGradient id="w" cx="0" cy="0" r="1" gradientTransform="matrix(.048 0 0 .048 17.53 17.887)" gradientUnits="userSpaceOnUse"><stop stop-color="#FFA754"/><stop offset="1" stop-color="#FFA754" stop-opacity="0"/></radialGradient><radialGradient id="x" cx="0" cy="0" r="1" gradientTransform="matrix(.1201 0 0 .1201 17.826 16.754)" gradientUnits="userSpaceOnUse"><stop stop-color="#FFA754"/><stop offset="1" stop-color="#FFA754" stop-opacity="0"/></radialGradient><clipPath id="a"><path fill="#fff" d="M0 0h24v24H0z"/></clipPath></defs></svg>